<svg xmlns="http://www.w3.org/2000/svg" width="61.31" height="58.79"><path data-name="" d="M61.31 28.57a5.645 5.645 0 01-.29 1.82 4.866 4.866 0 01-.84 1.55 4.953 4.953 0 01-1.26 1.13 8.117 8.117 0 01-1.55.7 8.716 8.716 0 01.7 1.48 5.021 5.021 0 01.28 1.75 5.208 5.208 0 01-.28 1.69 8.117 8.117 0 01-.7 1.55 9.455 9.455 0 01-1.27 1.05 7.3 7.3 0 01-1.4.78 8.023 8.023 0 01.7 1.54 5.3 5.3 0 01.28 1.69 5.079 5.079 0 01-.28 1.76 8.619 8.619 0 01-.7 1.47 5.987 5.987 0 01-1.27 1.2 3.638 3.638 0 01-1.55.63 4.825 4.825 0 011.13 3.24 5.024 5.024 0 01-.42 1.97 5.229 5.229 0 01-1.13 1.68 7.238 7.238 0 01-1.83 1.13 5.3 5.3 0 01-2.11.42H28.96a10.433 10.433 0 01-2.25-.28 18.428 18.428 0 01-2.67-.84 24.043 24.043 0 01-2.81-1.06c-.94-.42-1.88-.82-2.81-1.19-1.13-.47-2.23-.94-3.31-1.41a6.852 6.852 0 00-2.32-.7H-.01V25.89l1.13-.14h10.97a8.942 8.942 0 002.32-.28 6.385 6.385 0 002.18-1.12 23.738 23.738 0 002.88-1.97q1.62-1.275 3.87-3.1a14.178 14.178 0 005.13-9.14q.765-5.475.77-6.32a3.249 3.249 0 01.43-1.62A3.023 3.023 0 0130.79 1a4.125 4.125 0 011.48-.77 5.549 5.549 0 011.47-.21 9.124 9.124 0 012.25.28 4.526 4.526 0 012.11 1.27 6.7 6.7 0 011.55 2.6 13.555 13.555 0 01.56 4.29 29.3 29.3 0 01-.35 4.57 36.576 36.576 0 01-.91 4.15 23.294 23.294 0 01-1.06 3.58c-.42 1.08-.77 1.99-1.05 2.74h19.12a5.924 5.924 0 012.18.36 6.08 6.08 0 011.76 1.05 4.528 4.528 0 011.05 1.62 5.53 5.53 0 01.36 2.04zm-5.35 2.95a3.638 3.638 0 001.27-.21 1.709 1.709 0 00.84-.63 4.309 4.309 0 00.7-.92 2.331 2.331 0 00.29-1.19 2.713 2.713 0 00-.85-1.97 3.008 3.008 0 00-2.25-.85H33.04l.84-1.68q3.945-9.705 3.94-15.61c0-3.1-.51-4.9-1.55-5.42a6.082 6.082 0 00-2.53-.77 3.224 3.224 0 00-1.26.42 1.282 1.282 0 00-.85 1.13c0 .56-.04 1.5-.14 2.81a22.928 22.928 0 01-.84 4.5 29.08 29.08 0 01-2.04 5.2 14.092 14.092 0 01-3.73 4.64c-1.59 1.32-2.93 2.42-4 3.31a26.032 26.032 0 01-3.03 2.18 12.412 12.412 0 01-2.81 1.26 10.262 10.262 0 01-2.95.42H2.38v22.79h10.41a7.669 7.669 0 012.6.63c1.08.42 2.41.96 4.01 1.62.75.37 1.57.77 2.46 1.19a25.892 25.892 0 002.6 1.06c.94.28 1.78.54 2.53.77a6.893 6.893 0 001.97.35h18.56a2.788 2.788 0 001.27-.28 3.874 3.874 0 00.98-.7 1.653 1.653 0 00.64-.85 3.17 3.17 0 00.21-1.12 3.069 3.069 0 00-.21-1.2 2.965 2.965 0 00-1.62-1.54 3.42 3.42 0 00-1.27-.22h-.28v-2.39h3.24a3.17 3.17 0 001.12-.21 2.7 2.7 0 00.99-.63c.18-.28.37-.61.56-.98a2.482 2.482 0 00.28-1.13 2.443 2.443 0 00-.28-1.12 10.608 10.608 0 00-.56-.99 8.739 8.739 0 00-.99-.56 2.443 2.443 0 00-1.12-.28h-.99v-2.39h3.52a3.17 3.17 0 001.12-.21 2.728 2.728 0 00.99-.64 3.874 3.874 0 00.7-.98A2.452 2.452 0 0056.1 37a2.745 2.745 0 00-.28-1.26 2.152 2.152 0 00-.7-.85 3.758 3.758 0 00-.99-.7 2.443 2.443 0 00-1.12-.28h-1.13v-2.39h4.08z" fill="#00a2ff" fill-rule="evenodd"/></svg>