<svg xmlns="http://www.w3.org/2000/svg" viewBox="0 0 25.626 25.626"><path d="M12.812 0C5.736 0 0 5.736 0 12.812c0 5.421 3.372 10.045 8.128 11.917-.021-.438-.018-2.705 1.56-9.474.211-2.258-.082-3.059-.082-3.997 0-2.129 1.106-2.578 1.752-2.578.921 0 2.193.352 2.193 1.836 0 1.7-1.386 2.147-1.386 2.147s-.1.435-.215 1.643c-.115 1.21.369 2.52 2.343 2.52 3.165 0 3.653-4.393 3.653-5.602 0-1.67-1.224-5.06-5.024-5.06-5.068 0-5.94 4.54-5.94 5.751 0 .518.143 1.432.241 1.823.957.155.858 1.465.449 1.837-.455.409-2.793.896-2.793-4.236 0-4.887 4.356-7.405 8.179-7.405 3.639 0 7.603 2.511 7.603 7.348 0 4.318-3.104 7.718-6.364 7.718-1.958 0-2.996-1.613-2.996-1.613 0 1.51-2.773 6.699-3.128 7.358 1.44.561 3.001.88 4.64.88 7.076 0 12.813-5.736 12.813-12.813S19.888 0 12.812 0z" fill="#030104"/></svg>