<svg xmlns="http://www.w3.org/2000/svg" width="20" height="20.062"><path data-name="" d="M19.99 19.011l-1.04 1.047-5.77-5.784a6.393 6.393 0 01-1.09.8 8.623 8.623 0 01-1.24.6 7.282 7.282 0 01-1.37.374 8.383 8.383 0 01-1.42.125 7.735 7.735 0 01-3.16-.648 8.442 8.442 0 01-2.56-1.745 7.911 7.911 0 01-1.71-2.568 7.82 7.82 0 01-.62-3.116 8.06 8.06 0 012.33-5.734A8.1 8.1 0 014.9.642 8.008 8.008 0 018.06.019a7.993 7.993 0 015.67 2.343 8.35 8.35 0 011.74 2.568 7.794 7.794 0 01.64 3.166 8.663 8.663 0 01-.12 1.421 7.462 7.462 0 01-.37 1.371 9.336 9.336 0 01-.6 1.246 6.95 6.95 0 01-.79 1.1l5.76 5.784zM.85 8.092a7.015 7.015 0 00.55 2.792 7.121 7.121 0 001.54 2.293 7.322 7.322 0 002.31 1.571 6.992 6.992 0 002.81.573 6.828 6.828 0 002.79-.573 7.422 7.422 0 002.28-1.571 7.547 7.547 0 001.57-2.293 6.858 6.858 0 00.57-2.792 7.036 7.036 0 00-.57-2.817 7.48 7.48 0 00-1.57-2.318A7.018 7.018 0 008.06.862a7.274 7.274 0 00-2.81.549A7.094 7.094 0 001.4 5.275a7.2 7.2 0 00-.55 2.817z" fill="#fff" fill-rule="evenodd"/></svg>