<svg xmlns="http://www.w3.org/2000/svg" width="56.531" height="56.53"><path data-name="" d="M56.547 53.59l-2.954 2.96-16.312-16.32a18 18 0 01-3.094 2.25 24.059 24.059 0 01-3.515 1.69 20.8 20.8 0 01-3.868 1.06 24.021 24.021 0 01-4.007.35 21.867 21.867 0 01-8.93-1.83 23.622 23.622 0 01-7.242-4.92 22.523 22.523 0 01-4.852-7.25A22.224 22.224 0 01.015 22.8 22.6 22.6 0 0122.797.01a22.337 22.337 0 018.789 1.76 22.794 22.794 0 017.242 4.85 23.707 23.707 0 014.922 7.25 21.9 21.9 0 011.828 8.93 23.551 23.551 0 01-.352 4 20.544 20.544 0 01-1.054 3.87 24.84 24.84 0 01-1.688 3.52 18.988 18.988 0 01-2.25 3.09l16.313 16.31zM2.406 22.8a19.963 19.963 0 001.547 7.87 20.187 20.187 0 004.359 6.47 20.879 20.879 0 006.539 4.43 19.709 19.709 0 007.946 1.62 19.226 19.226 0 007.875-1.62 21.318 21.318 0 0010.9-10.9 19.26 19.26 0 001.617-7.87 19.776 19.776 0 00-1.617-7.95 21.078 21.078 0 00-4.43-6.54 20.279 20.279 0 00-6.468-4.36 20.032 20.032 0 00-7.875-1.55 20.538 20.538 0 00-7.946 1.55 20.036 20.036 0 00-10.9 10.9 20.5 20.5 0 00-1.547 7.95z" fill="#5474fd" fill-rule="evenodd"/></svg>