<svg xmlns="http://www.w3.org/2000/svg" width="59.907" height="59.91"><path data-name="" d="M29.969.02a29.925 29.925 0 11-11.672 2.32A29.593 29.593 0 0129.969.02zm0 57.51a26.481 26.481 0 0010.758-2.18 26.615 26.615 0 0014.625-14.62 27.656 27.656 0 000-21.52A26.615 26.615 0 0040.727 4.59a27.635 27.635 0 00-21.516 0A26.615 26.615 0 004.586 19.21a27.644 27.644 0 000 21.52 26.615 26.615 0 0014.625 14.62 26.467 26.467 0 0010.758 2.18zm15.047-38.25a1.416 1.416 0 011.195-.56 1.847 1.847 0 011.336.56 2.178 2.178 0 01.422 1.34 1.4 1.4 0 01-.563 1.19L26.875 41.78a.637.637 0 01-.492.35 3.04 3.04 0 01-.633.07 3.714 3.714 0 01-.773-.07.63.63 0 01-.492-.35l-8.016-8.01a1.831 1.831 0 01-.562-1.34 1.967 1.967 0 011.757-1.76 1.818 1.818 0 011.336.57l6.75 6.75 19.266-18.71z" fill="#ff6363" fill-rule="evenodd"/></svg>